<?xml version="1.0" encoding="UTF-8"?>
<svg version="1.1" xmlns="http://www.w3.org/2000/svg" width="360" height="360">
<path d="M0 0 C1.43400146 0.9276416 1.43400146 0.9276416 2.89697266 1.87402344 C5.74893325 3.72078091 8.59361924 5.57833264 11.4375 7.4375 C13.70006883 8.90658736 15.96432651 10.37303324 18.22900391 11.83886719 C19.61859557 12.73834039 21.00759306 13.6387322 22.39599609 14.54003906 C27.58912626 17.90662 32.82607784 21.19784972 38.08105469 24.46679688 C46.5989601 29.77141013 55.05093958 35.17965821 63.51171875 40.57470703 C66.53647927 42.50051834 69.56467653 44.42082423 72.59375 46.33984375 C74.09301025 47.29068848 74.09301025 47.29068848 75.62255859 48.26074219 C77.5413648 49.47748394 79.46092738 50.69303394 81.38134766 51.90722656 C82.24808105 52.45733398 83.11481445 53.00744141 84.0078125 53.57421875 C85.14887451 54.29677856 85.14887451 54.29677856 86.31298828 55.03393555 C88.4375 56.4375 88.4375 56.4375 90.59716797 58.12036133 C92.31478593 59.63204291 92.31478593 59.63204291 94.3125 59.375 C97.25677053 58.07605712 99.77377795 56.23261703 102.4375 54.4375 C103.0975 54.4375 103.7575 54.4375 104.4375 54.4375 C104.4375 53.7775 104.4375 53.1175 104.4375 52.4375 C106.2109375 51.16796875 106.2109375 51.16796875 108.8125 49.625 C113.96502669 46.44159179 118.86409188 43.01504779 123.75 39.4375 C130.64050154 34.40603666 137.62437832 29.5360032 144.6875 24.75 C150.75038793 20.64028161 156.80164737 16.5243125 162.75 12.25 C163.2869751 11.86465088 163.8239502 11.47930176 164.37719727 11.08227539 C166.7525462 9.37482663 169.12508151 7.66354746 171.49511719 5.94873047 C197.98366905 -13.18057464 197.98366905 -13.18057464 215.4375 -10.5625 C220.49950321 -9.14811675 225.05715797 -7.48272802 229.4375 -4.5625 C229.4375 -3.9025 229.4375 -3.2425 229.4375 -2.5625 C230.02144531 -2.35496094 230.60539062 -2.14742187 231.20703125 -1.93359375 C234.28479911 -0.04165589 235.37301543 2.23966969 237.125 5.375 C237.72699219 6.43589844 238.32898438 7.49679688 238.94921875 8.58984375 C241.36620192 13.21446509 241.58594223 17.00049097 241.58467102 22.10269165 C241.58834771 22.89111399 241.5920244 23.67953633 241.5958125 24.49185026 C241.60685468 27.1425226 241.61069411 29.79315575 241.61450195 32.44384766 C241.62076628 34.34099451 241.62741305 36.23814014 241.63441467 38.13528442 C241.65546378 44.37403508 241.66581887 50.612786 241.67578125 56.8515625 C241.6798287 58.99937325 241.68394561 61.14718387 241.68813133 63.29499435 C241.70718604 73.38692413 241.72141565 83.47884658 241.7297433 93.57079089 C241.7395127 105.21762104 241.76582338 116.86426098 241.80624419 128.51102412 C241.83641678 137.5141248 241.85121333 146.517171 241.85452431 155.52032125 C241.85687379 160.89683871 241.86582087 166.27315305 241.89098549 171.64961624 C241.91429063 176.71068673 241.91848953 181.7714207 241.90822411 186.83253098 C241.90772921 188.68643056 241.91403608 190.54034685 241.92778015 192.39419556 C242.06306138 211.72903892 242.06306138 211.72903892 236.05261707 219.14660072 C230.78378659 224.37720544 226.01355051 224.91214983 218.4375 227.4375 C203.5875 227.1075 188.7375 226.7775 173.4375 226.4375 C173.4375 181.2275 173.4375 136.0175 173.4375 89.4375 C165.41208959 94.99355336 157.3877486 100.55075983 149.375 106.125 C148.39329834 106.80780029 147.41159668 107.49060059 146.40014648 108.1940918 C139.10284331 113.27218774 131.81961131 118.37009984 124.54077148 123.47460938 C118.53887766 127.67879049 112.51086484 131.84356995 106.45922852 135.97583008 C103.97355295 137.67606789 101.54459306 139.34627966 99.25 141.30078125 C97.4375 142.4375 97.4375 142.4375 95.58911133 142.15673828 C93.23413612 141.36951975 91.3270995 140.34598613 89.19921875 139.06640625 C87.98057129 138.33623291 87.98057129 138.33623291 86.73730469 137.59130859 C85.87524414 137.06617676 85.01318359 136.54104492 84.125 136 C83.23071289 135.45939941 82.33642578 134.91879883 81.41503906 134.36181641 C75.47253091 130.74468372 69.6423197 126.99222759 63.88378906 123.09033203 C58.78530938 119.64022261 53.588203 116.368718 48.35766602 113.12329102 C43.92194264 110.36972834 39.51260445 107.57959917 35.125 104.75 C34.55539551 104.38318115 33.98579102 104.0163623 33.39892578 103.63842773 C30.67218114 101.88146398 27.9482482 100.12026009 25.2265625 98.35546875 C24.24429688 97.72253906 23.26203125 97.08960938 22.25 96.4375 C21.39019531 95.880625 20.53039062 95.32375 19.64453125 94.75 C17.39051011 93.30344302 17.39051011 93.30344302 14.4375 92.4375 C14.4375 91.7775 14.4375 91.1175 14.4375 90.4375 C13.674375 90.14875 12.91125 89.86 12.125 89.5625 C9.4375 88.4375 9.4375 88.4375 6.4375 86.4375 C6.43326806 87.152947 6.42903612 87.86839399 6.42467594 88.6055212 C6.32151101 105.98896465 6.2128948 123.3723654 6.09816074 140.75573635 C6.04280933 149.16209439 5.98932424 157.56845667 5.94018555 165.97485352 C5.89736714 173.29920596 5.85109518 180.6235269 5.80062145 187.94783074 C5.77400155 191.82838937 5.74914809 195.70894168 5.72842598 199.58953667 C5.70888937 203.23792618 5.68475473 206.88625564 5.65700912 210.53459167 C5.64312877 212.52036013 5.63419921 214.50616123 5.62538147 216.49195862 C5.61559265 217.6629007 5.60580383 218.83384277 5.59571838 220.04026794 C5.58926583 221.06437995 5.58281328 222.08849195 5.5761652 223.14363766 C5.4375 225.4375 5.4375 225.4375 4.4375 226.4375 C3.07335079 226.5406659 1.70396543 226.57599188 0.3359375 226.58276367 C-0.53587158 226.58914352 -1.40768066 226.59552338 -2.3059082 226.60209656 C-3.2568335 226.60320938 -4.20775879 226.6043222 -5.1875 226.60546875 C-6.16356201 226.60879715 -7.13962402 226.61212555 -8.14526367 226.61555481 C-10.22004728 226.62063175 -12.29483909 226.6229629 -14.36962891 226.62280273 C-17.5212998 226.62497165 -20.6726107 226.64307016 -23.82421875 226.66210938 C-25.84114464 226.66504678 -27.85807219 226.66702925 -29.875 226.66796875 C-31.27709717 226.67874702 -31.27709717 226.67874702 -32.70751953 226.68974304 C-41.18975663 226.66065058 -48.79952213 225.97084553 -55.5625 220.4375 C-61.076773 214.7394179 -62.8630619 210.53650355 -62.82992554 202.66551208 C-62.83445665 201.87764645 -62.83898776 201.08978082 -62.84365618 200.27804047 C-62.85632733 197.63508928 -62.85467804 194.99234346 -62.85302734 192.34936523 C-62.85901113 190.45531448 -62.86581633 188.56126616 -62.87338257 186.66722107 C-62.89107067 181.51811023 -62.89573929 176.36906584 -62.89701414 171.21992755 C-62.89843536 168.00094648 -62.90270452 164.78198232 -62.90800858 161.56300545 C-62.92652213 150.32674207 -62.93467802 139.09052617 -62.93310547 127.85424805 C-62.93190554 117.39218736 -62.95297541 106.93033347 -62.9845928 96.46832508 C-63.01078631 87.47960201 -63.02147139 78.49094632 -63.02019465 69.5021854 C-63.01968568 64.13680926 -63.02533238 58.77161664 -63.04655075 53.40627861 C-63.06598342 48.35420123 -63.0660232 43.30248135 -63.05151749 38.25039101 C-63.04943413 36.40217438 -63.0541019 34.5539351 -63.0662384 32.70575714 C-63.14488632 19.89271956 -62.73579233 8.8992621 -53.34765625 -0.84765625 C-52.46400391 -1.69650391 -52.46400391 -1.69650391 -51.5625 -2.5625 C-51.06621094 -3.05621094 -50.56992187 -3.54992187 -50.05859375 -4.05859375 C-34.74992811 -18.11586983 -14.85274611 -9.76699126 0 0 Z " fill="#E94535" transform="translate(90.5625,72.5625)"/>
<path d="M0 0 C0.33 0 0.66 0 1 0 C1.0935021 23.05284159 1.16400806 46.10565184 1.20724869 69.15864468 C1.22786102 79.86290774 1.2559563 90.56705287 1.30175781 101.27124023 C1.34166616 110.60260681 1.36744247 119.93388797 1.37635398 129.26533753 C1.38156193 134.20485101 1.39377496 139.14412016 1.42292023 144.08355522 C1.45015245 148.7366521 1.45842923 153.38940492 1.45243073 158.04257393 C1.45352747 159.74651079 1.46143478 161.45045965 1.4768219 163.15432739 C1.63229469 181.26491729 1.63229469 181.26491729 -4.38494492 188.71465206 C-9.66409619 193.93755811 -14.41551506 194.47183835 -22 197 C-44.275 196.505 -44.275 196.505 -67 196 C-67 150.79 -67 105.58 -67 59 C-67.66 58.67 -68.32 58.34 -69 58 C-68.34 58 -67.68 58 -67 58 C-67 57.34 -67 56.68 -67 56 C-61.25 53 -61.25 53 -59 53 C-59 52.34 -59 51.68 -59 51 C-57.906875 50.401875 -56.81375 49.80375 -55.6875 49.1875 C-53.69917469 48.05641674 -52.12047581 47.12047581 -50.5 45.5 C-48.56615731 43.56615731 -46.31816114 42.42807129 -43.9140625 41.16015625 C-41.42710105 39.65275308 -39.26798514 37.81911308 -37 36 C-35.13823471 34.7303721 -33.26242876 33.48115299 -31.375 32.25 C-11.41199354 19.72557473 -11.41199354 19.72557473 0 0 Z " fill="#00AB47" transform="translate(331,103)"/>
<path d="M0 0 C2.58949269 1.29474635 2.96035764 2.32663393 4 5 C4.125 7.75 4.125 7.75 4 10 C4.66 10 5.32 10 6 10 C7.110682 11.20739046 8.16465549 12.46734831 9.1875 13.75 C12.46505307 17.63348725 15.45827088 19.77547961 20 22 C20 22.66 20 23.32 20 24 C20.74121094 24.26425781 21.48242188 24.52851563 22.24609375 24.80078125 C24.98430668 25.99316617 26.79016586 27.2741859 29.0625 29.1875 C33.50267142 32.76492454 38.19775356 35.5120092 43.203125 38.2265625 C46 40 46 40 48.13064575 42.36953735 C50.71063179 44.7347235 52.03220716 45.56316277 55.14743042 46.79672241 C60.30786241 48.99647416 64.65650978 51.37854442 68 56 C70.97935708 65.1514904 70.05734311 75.42695891 69.75662851 84.9486165 C69.65340816 88.783347 69.64697914 92.61828674 69.62960815 96.45419312 C69.58209623 103.70436527 69.44720582 110.95015441 69.28086555 118.1984657 C69.09615542 126.4520506 69.01550569 134.70569453 68.94072747 142.96088529 C68.82711628 155.10960836 68.67686732 167.2580331 68.42409515 179.40472031 C68.38418862 181.34979245 68.34867576 183.29495316 68.31326294 185.2401123 C68.28732056 186.38674347 68.26137817 187.53337463 68.23464966 188.7147522 C68.21349154 189.71720285 68.19233341 190.71965351 68.17053413 191.75248146 C68 194 68 194 67 195 C65.63585079 195.1031659 64.26646543 195.13849188 62.8984375 195.14526367 C62.02662842 195.15164352 61.15481934 195.15802338 60.2565918 195.16459656 C59.3056665 195.16570938 58.35474121 195.1668222 57.375 195.16796875 C56.39893799 195.17129715 55.42287598 195.17462555 54.41723633 195.17805481 C52.34245272 195.18313175 50.26766091 195.1854629 48.19287109 195.18530273 C45.0412002 195.18747165 41.8898893 195.20557016 38.73828125 195.22460938 C36.72135536 195.22754678 34.70442781 195.22952925 32.6875 195.23046875 C31.28540283 195.24124702 31.28540283 195.24124702 29.85498047 195.25224304 C21.37274337 195.22315058 13.76297787 194.53334553 7 189 C1.59301645 183.41278366 -0.2514166 179.51144897 -0.24050903 171.72344971 C-0.24221788 170.98907614 -0.24392673 170.25470256 -0.24568737 169.49807525 C-0.24898229 167.03670358 -0.23797863 164.57560437 -0.22705078 162.11425781 C-0.22648667 160.3501435 -0.22680323 158.58602871 -0.22793579 156.82191467 C-0.2285103 152.03094098 -0.21674011 147.24006716 -0.20278788 142.44911671 C-0.19029686 137.44295061 -0.1891113 132.4367823 -0.18673706 127.43060303 C-0.1805175 117.94985968 -0.16410023 108.46916238 -0.14403808 98.98843932 C-0.12169389 88.19532982 -0.11068938 77.40221814 -0.10064721 66.60909128 C-0.07973443 44.40603514 -0.04454919 22.20302047 0 0 Z " fill="#4386F4" transform="translate(28,104)"/>
<path d="M0 0 C1.0725 0.598125 2.145 1.19625 3.25 1.8125 C3.25 2.4725 3.25 3.1325 3.25 3.8125 C4.12591797 4.12380859 4.12591797 4.12380859 5.01953125 4.44140625 C8.09729911 6.33334411 9.18551543 8.61466969 10.9375 11.75 C11.53949219 12.81089844 12.14148438 13.87179688 12.76171875 14.96484375 C16.57680242 22.26457077 16.32869552 31.82840686 14.6015625 39.80859375 C9.38100902 54.10934067 -4.66954934 61.89553423 -16.79296875 69.82421875 C-20.7013793 72.4521989 -24.44431395 75.28122416 -28.1796875 78.1484375 C-30.75 79.8125 -30.75 79.8125 -34.0078125 80.8515625 C-34.91273438 81.16867188 -35.81765625 81.48578125 -36.75 81.8125 C-37.08 82.8025 -37.41 83.7925 -37.75 84.8125 C-40.33072903 87.13515612 -41.20176068 87.8125 -44.75 87.8125 C-44.75 88.4725 -44.75 89.1325 -44.75 89.8125 C-47.65548882 91.85419485 -49.15142046 92.8125 -52.75 92.8125 C-52.81980048 84.11914893 -52.87296273 75.42589573 -52.90543652 66.7323246 C-52.92102972 62.69465799 -52.94215048 58.65718444 -52.97631836 54.61962891 C-53.00914022 50.71628319 -53.02690061 46.81312207 -53.03463173 42.9096489 C-53.0401346 41.42744419 -53.05087933 39.9452485 -53.06719017 38.46312332 C-53.17333994 28.40908711 -52.43446387 19.8410284 -47.75 10.8125 C-48.41 10.1525 -49.07 9.4925 -49.75 8.8125 C-33.34493379 -2.89111431 -19.76710115 -9.83107154 0 0 Z " fill="#FDB901" transform="translate(316.75,66.1875)"/>
<path d="M0 0 C0.81984375 0.41121094 1.6396875 0.82242188 2.484375 1.24609375 C8.91372267 4.95452467 10.9341635 9.02206338 13 16 C13.5878125 17.485 13.5878125 17.485 14.1875 19 C16.50465019 27.55563146 16.12385974 36.5838763 16.0625 45.375 C16.05682007 47.24442261 16.05682007 47.24442261 16.05102539 49.15161133 C16.03888378 53.10110519 16.02041932 57.05054281 16 61 C15.97317327 66.22916137 15.95348626 71.4582912 15.9375 76.6875 C15.92920166 77.8926123 15.92090332 79.09772461 15.91235352 80.33935547 C15.90905029 81.44811035 15.90574707 82.55686523 15.90234375 83.69921875 C15.89448853 85.16621216 15.89448853 85.16621216 15.88647461 86.6628418 C15.84367431 89.02342537 15.84367431 89.02342537 17 91 C16.34 91 15.68 91 15 91 C14.505 92.485 14.505 92.485 14 94 C-0.75675519 84.45038108 -0.75675519 84.45038108 -5.1875 80.3125 C-9.02652211 76.75600333 -13.33529155 74.39425304 -17.87890625 71.8359375 C-22.81835308 68.93038054 -27.64227931 65.7315128 -32 62 C-32 61.34 -32 60.68 -32 60 C-32.57492188 59.90332031 -33.14984375 59.80664062 -33.7421875 59.70703125 C-36.4819772 58.84906942 -37.98378998 57.58853627 -40.125 55.6875 C-40.80820312 55.09324219 -41.49140625 54.49898437 -42.1953125 53.88671875 C-43.98909166 52.01140418 -44.98439908 50.3714805 -46 48 C-46.66 48 -47.32 48 -48 48 C-48.30744141 47.04287109 -48.30744141 47.04287109 -48.62109375 46.06640625 C-48.89050781 45.24011719 -49.15992188 44.41382813 -49.4375 43.5625 C-49.70433594 42.73878906 -49.97117187 41.91507813 -50.24609375 41.06640625 C-50.82155494 39.03780412 -50.82155494 39.03780412 -52 38 C-52.90025177 26.6951991 -52.19716954 16.64108656 -44.625 7.625 C-43.43953128 6.39422674 -42.23235923 5.18381992 -41 4 C-40.50371094 3.50628906 -40.00742187 3.01257813 -39.49609375 2.50390625 C-28.48740586 -7.6048889 -12.52812793 -6.28427062 0 0 Z " fill="#C62629" transform="translate(80,66)"/>
<path d="M0 0 C-1 3 -1 3 -3.0625 4.1875 C-3.701875 4.455625 -4.34125 4.72375 -5 5 C-5.0270043 6.45823212 -5.04639787 7.91660675 -5.0625 9.375 C-5.07410156 10.18710938 -5.08570313 10.99921875 -5.09765625 11.8359375 C-5.14466334 14.04937142 -5.14466334 14.04937142 -4 16 C-4.33 16.66 -4.66 17.32 -5 18 C-5.10456976 19.63419552 -5.1465458 21.27256857 -5.15821838 22.9100647 C-5.1680072 23.94775497 -5.17779602 24.98544525 -5.18788147 26.05458069 C-5.19363693 27.19753098 -5.1993924 28.34048126 -5.20532227 29.51806641 C-5.21522186 30.71804764 -5.22512146 31.91802887 -5.23532104 33.15437317 C-5.26154258 36.44959893 -5.28339064 39.74480002 -5.30332303 43.04006624 C-5.32516773 46.48209033 -5.35256382 49.92407004 -5.37937927 53.36605835 C-5.42932671 59.88604706 -5.47425791 66.40606038 -5.51740164 72.92609727 C-5.56675651 80.34803893 -5.62168111 87.76993607 -5.67708123 95.19183469 C-5.79093276 110.46118359 -5.89702954 125.73057325 -6 141 C10.17 141 26.34 141 43 141 C43 140.34 43 139.68 43 139 C44.32 139 45.64 139 47 139 C47.66 137.35 48.32 135.7 49 134 C49.99 134 50.98 134 52 134 C52.33 133.34 52.66 132.68 53 132 C53.99 132 54.98 132 56 132 C54.45556456 136.63330631 51.03276413 138.54253436 47 141 C29.42824526 146.27152642 10.34092248 143.40757606 -8 143 C-8 97.79 -8 52.58 -8 6 C-8.66 5.67 -9.32 5.34 -10 5 C-9.34 5 -8.68 5 -8 5 C-8 4.34 -8 3.68 -8 3 C-2.25 0 -2.25 0 0 0 Z " fill="#51BE77" transform="translate(272,156)"/>
<path d="M0 0 C0.33 0 0.66 0 1 0 C1 58.74 1 117.48 1 178 C-0.32 178.33 -1.64 178.66 -3 179 C-2.67 178.34 -2.34 177.68 -2 177 C-1.89362827 174.8464526 -1.85330299 172.68955881 -1.84178162 170.53341675 C-1.83437465 169.52629959 -1.83437465 169.52629959 -1.82681805 168.49883664 C-1.81140339 166.23864756 -1.80307175 163.97848698 -1.79467773 161.71826172 C-1.78510232 160.10222115 -1.77509244 158.4861831 -1.76467896 156.87014771 C-1.73758729 152.47372823 -1.71660084 148.07729798 -1.69667697 143.68084097 C-1.67484365 139.08970762 -1.64744201 134.49860766 -1.62062073 129.90750122 C-1.57065787 121.20942451 -1.5257324 112.51132929 -1.48259836 103.81321633 C-1.43325665 93.91248987 -1.37832718 84.0117969 -1.32291877 74.11110282 C-1.20904359 53.74076641 -1.10221663 33.37039803 -1 13 C-1.66 13 -2.32 13 -3 13 C-3.31130859 13.84884766 -3.31130859 13.84884766 -3.62890625 14.71484375 C-4.59506134 17.01502051 -5.52202577 18.98535502 -7 21 C-10.75 22 -10.75 22 -14 22 C-13.67 23.65 -13.34 25.3 -13 27 C-13.66 27 -14.32 27 -15 27 C-15 26.01 -15 25.02 -15 24 C-16.32 24.33 -17.64 24.66 -19 25 C-16.10230871 22.01175586 -13.14461634 19.28061222 -9.9375 16.625 C-4.54325231 11.94185841 -2.01335825 6.87897403 0 0 Z " fill="#1FA851" transform="translate(331,103)"/>
<path d="M0 0 C2.58949269 1.29474635 2.96035764 2.32663393 4 5 C4.125 7.75 4.125 7.75 4 10 C4.66 10 5.32 10 6 10 C5.67 10.66 5.34 11.32 5 12 C4.34 11.67 3.68 11.34 3 11 C2.375 8.4375 2.375 8.4375 2 6 C1.97663449 27.9139661 1.95900286 49.82793014 1.94818783 71.74190617 C1.94303264 81.91705301 1.93600472 92.09219211 1.92456055 102.26733398 C1.91458999 111.13649308 1.90814091 120.00564657 1.90591151 128.87481111 C1.90460844 133.57047402 1.90154806 138.26612088 1.89426994 142.96177864 C1.88747234 147.38332582 1.88539066 151.80485038 1.88689232 156.22640228 C1.88661767 157.84730846 1.88463477 159.4682154 1.88079453 161.08911705 C1.87579883 163.30688053 1.8770233 165.52455927 1.87974548 167.74232483 C1.87882369 168.98213639 1.8779019 170.22194796 1.87695217 171.49932957 C2.00297682 175.08468945 2.30083537 178.47986131 3 182 C3.66 182.33 4.32 182.66 5 183 C4.01 183.99 4.01 183.99 3 185 C0.25593391 180.30069996 -0.372158 176.89910292 -0.36076355 171.48294067 C-0.36332682 170.74685825 -0.3658901 170.01077583 -0.36853105 169.25238788 C-0.37345462 166.79710152 -0.35700012 164.34243631 -0.34057617 161.88720703 C-0.33972959 160.1227978 -0.34020565 158.3583875 -0.34190369 156.59397888 C-0.34276384 151.81133601 -0.32513467 147.0289192 -0.30418181 142.24632883 C-0.28541853 137.24551956 -0.28366484 132.24470501 -0.28010559 127.24386597 C-0.27078412 117.77732778 -0.2461689 108.31089363 -0.21605712 98.84440124 C-0.18251635 88.06576358 -0.16602791 77.28712093 -0.15097082 66.50844407 C-0.11961947 44.33890467 -0.06685693 22.16945889 0 0 Z " fill="#5885D9" transform="translate(28,104)"/>
<path d="M0 0 C0.66 0.33 1.32 0.66 2 1 C1.01 2.485 1.01 2.485 0 4 C-0.99 4 -1.98 4 -3 4 C-3.226875 4.66 -3.45375 5.32 -3.6875 6 C-5.06871721 9.15706792 -6.78691532 11.74994222 -8.78125 14.546875 C-12.90255024 22.84231267 -12.34068253 32.28683509 -12.4140625 41.31640625 C-12.43280551 42.78329011 -12.45238118 44.25016354 -12.4727478 45.71702576 C-12.52374457 49.54897878 -12.56354231 53.38096663 -12.60089111 57.21307373 C-12.6411361 61.13497299 -12.69213417 65.05673145 -12.7421875 68.97851562 C-12.83856164 76.65224662 -12.92308758 84.32604662 -13 92 C-13.33 92 -13.66 92 -14 92 C-14.06980048 83.30664893 -14.12296273 74.61339573 -14.15543652 65.9198246 C-14.17102972 61.88215799 -14.19215048 57.84468444 -14.22631836 53.80712891 C-14.25914022 49.90378319 -14.27690061 46.00062207 -14.28463173 42.0971489 C-14.2901346 40.61494419 -14.30087933 39.1327485 -14.31719017 37.65062332 C-14.42333994 27.59658711 -13.68446387 19.0285284 -9 10 C-9.66 9.34 -10.32 8.68 -11 8 C-7.37 5.36 -3.74 2.72 0 0 Z " fill="#F58D14" transform="translate(278,67)"/>
<path d="M0 0 C0.33 0 0.66 0 1 0 C1.02537991 7.72297462 1.04287951 15.44593847 1.05493164 23.16894531 C1.05995667 25.79557701 1.06677774 28.42220591 1.07543945 31.04882812 C1.08758507 34.82682993 1.09324667 38.60479471 1.09765625 42.3828125 C1.10281754 43.55490265 1.10797882 44.7269928 1.11329651 45.93460083 C1.11337204 47.035289 1.11344757 48.13597717 1.11352539 49.27001953 C1.115746 50.23376495 1.11796661 51.19751038 1.12025452 52.19046021 C0.99169966 55.1939231 0.55092001 58.04717242 0 61 C0.66 61 1.32 61 2 61 C2.33 61.66 2.66 62.32 3 63 C3.99 63.66 4.98 64.32 6 65 C1.25 68 1.25 68 -1 68 C-1.02314216 59.42921353 -1.04092467 50.85844005 -1.05181217 42.28763008 C-1.05703689 38.30811588 -1.0641271 34.32862301 -1.07543945 30.34912109 C-1.08628291 26.51066757 -1.09227994 22.6722346 -1.09487724 18.83376694 C-1.09672885 17.36730501 -1.10034444 15.90084423 -1.10573006 14.43439102 C-1.11295983 12.38478388 -1.11399012 10.33526232 -1.11352539 8.28564453 C-1.115746 7.11760284 -1.11796661 5.94956116 -1.12025452 4.74612427 C-1 2 -1 2 0 0 Z " fill="#FEB30E" transform="translate(266,91)"/>
<path d="M0 0 C0.99 0 1.98 0 3 0 C1.50314027 4.49057919 -2.10295824 6.6652467 -6 9 C-8.97881427 9.99293809 -10.91487239 10.12119785 -14.0222168 10.11352539 C-15.04304855 10.11344986 -16.06388031 10.11337433 -17.11564636 10.11329651 C-18.21572525 10.10813522 -19.31580414 10.10297394 -20.44921875 10.09765625 C-21.5769722 10.0962413 -22.70472565 10.09482635 -23.86665344 10.09336853 C-27.47362912 10.0877647 -31.08054304 10.07521153 -34.6875 10.0625 C-37.13085848 10.05748549 -39.57421793 10.0529225 -42.01757812 10.04882812 C-48.01173987 10.03779403 -54.00586552 10.02105215 -60 10 C-60 9.67 -60 9.34 -60 9 C-43.5 9 -27 9 -10 9 C-10 8.34 -10 7.68 -10 7 C-8.68 7 -7.36 7 -6 7 C-5.34 5.35 -4.68 3.7 -4 2 C-3.01 2 -2.02 2 -1 2 C-0.67 1.34 -0.34 0.68 0 0 Z " fill="#199645" transform="translate(325,288)"/>
<path d="M0 0 C0.33 0 0.66 0 1 0 C1 6.6 1 13.2 1 20 C0.67 20 0.34 20 0 20 C0 16.7 0 13.4 0 10 C-0.66 10 -1.32 10 -2 10 C-2.31130859 10.84884766 -2.31130859 10.84884766 -2.62890625 11.71484375 C-3.59506134 14.01502051 -4.52202577 15.98535502 -6 18 C-9.75 19 -9.75 19 -13 19 C-12.67 20.65 -12.34 22.3 -12 24 C-12.66 24 -13.32 24 -14 24 C-14 23.01 -14 22.02 -14 21 C-15.32 21.33 -16.64 21.66 -18 22 C-15.76102314 19.69105511 -13.5836508 17.46362584 -11.0625 15.4609375 C-5.53525072 11.04332538 -2.72138864 6.50254881 0 0 Z " fill="#10A336" transform="translate(330,106)"/>
<path d="M0 0 C4.36110867 3.53042131 5.82734212 8.47407764 6.43359375 13.83203125 C6.45064715 31.20944662 6.45064715 31.20944662 0.36328125 37.76171875 C-0.08660156 38.17035156 -0.53648437 38.57898438 -1 39 C-1 37.68 -1 36.36 -1 35 C-0.34 35 0.32 35 1 35 C1 33.68 1 32.36 1 31 C1.66 31 2.32 31 3 31 C4.12536783 25.65450281 5.53466037 18.06932075 3 13 C2.960008 11.00039988 2.95653201 8.99952758 3 7 C2.34 7 1.68 7 1 7 C0.67 4.69 0.34 2.38 0 0 Z " fill="#CABF26" transform="translate(326,77)"/>
<path d="M0 0 C2.16874252 0.50603992 3.99967627 0.99983813 6 2 C6.33 1.34 6.66 0.68 7 0 C7.99 0.66 8.98 1.32 10 2 C10 2.99 10 3.98 10 5 C10.99 5 11.98 5 13 5 C13.33 4.34 13.66 3.68 14 3 C14.33 5.31 14.66 7.62 15 10 C9.33822218 8.5482621 4.50540116 5.68441695 0 2 C0 1.34 0 0.68 0 0 Z " fill="#E15D54" transform="translate(136,182)"/>
<path d="M0 0 C-1.32 2.97 -2.64 5.94 -4 9 C-11.75 7.125 -11.75 7.125 -14 6 C-12.42825925 4.79719839 -10.84212442 3.61318725 -9.25 2.4375 C-8.36828125 1.77621094 -7.4865625 1.11492187 -6.578125 0.43359375 C-4 -1 -4 -1 0 0 Z " fill="#DE553F" transform="translate(270,77)"/>
<path d="M0 0 C0.66 0.33 1.32 0.66 2 1 C1.01 2.485 1.01 2.485 0 4 C-0.99 4 -1.98 4 -3 4 C-3.226875 4.66 -3.45375 5.32 -3.6875 6 C-4.8000409 8.54295064 -5.95745417 10.47485866 -7.5 12.75 C-10.22714235 16.96540587 -11.2369048 21.07974441 -12 26 C-12.33 26 -12.66 26 -13 26 C-13.5326514 19.741346 -11.81849506 15.54891215 -9 10 C-9.66 9.34 -10.32 8.68 -11 8 C-7.37 5.36 -3.74 2.72 0 0 Z " fill="#FDA51F" transform="translate(278,67)"/>
<path d="M0 0 C6.30596952 1.10938353 11.37529486 2.93197901 17 6 C17 6.66 17 7.32 17 8 C18.32 8.66 19.64 9.32 21 10 C21 10.66 21 11.32 21 12 C19.0625 11.6875 19.0625 11.6875 17 11 C16.67 10.01 16.34 9.02 16 8 C13.90280128 6.97718482 13.90280128 6.97718482 11.4375 6.3125 C10.61121094 6.06113281 9.78492188 5.80976562 8.93359375 5.55078125 C8.29550781 5.36902344 7.65742188 5.18726562 7 5 C7 4.34 7 3.68 7 3 C4.69 3 2.38 3 0 3 C0 2.01 0 1.02 0 0 Z " fill="#EDC33C" transform="translate(303,62)"/>
<path d="M0 0 C3.75131012 1.76423001 7.23536211 3.93897248 10.75 6.125 C11.35199219 6.49753906 11.95398438 6.87007813 12.57421875 7.25390625 C14.05042343 8.16774724 15.52534154 9.08366598 17 10 C16.01 10.66 15.02 11.32 14 12 C13.01 11.67 12.02 11.34 11 11 C11 11.66 11 12.32 11 13 C10.01 13 9.02 13 8 13 C8.33 11.35 8.66 9.7 9 8 C8.34 7.67 7.68 7.34 7 7 C7 6.34 7 5.68 7 5 C6.01 5.33 5.02 5.66 4 6 C2.62437146 4.71034824 1.29233607 3.37310707 0 2 C0 1.34 0 0.68 0 0 Z " fill="#DC6A60" transform="translate(102,81)"/>
<path d="M0 0 C0.33 0 0.66 0 1 0 C1.02505615 0.75095947 1.0501123 1.50191895 1.07592773 2.27563477 C1.19254942 5.70473533 1.31497417 9.13360553 1.4375 12.5625 C1.47681641 13.74392578 1.51613281 14.92535156 1.55664062 16.14257812 C1.78079681 24.62635767 1.78079681 24.62635767 3 33 C3.66 33.33 4.32 33.66 5 34 C4.34 34.66 3.68 35.32 3 36 C0.33496165 31.40765019 -0.36076227 28.13945677 -0.29296875 22.8515625 C-0.28872391 22.19417084 -0.28447906 21.53677917 -0.28010559 20.85946655 C-0.26344977 18.78087609 -0.2258262 16.70329226 -0.1875 14.625 C-0.17243605 13.20704536 -0.15875065 11.78907536 -0.14648438 10.37109375 C-0.11359038 6.9137411 -0.06190165 3.45696897 0 0 Z " fill="#588BE0" transform="translate(28,253)"/>
<path d="M0 0 C2.31 0 4.62 0 7 0 C3.8980055 3.34292611 0.56424638 5.76244801 -3.25 8.25 C-4.32765625 8.95640625 -5.4053125 9.6628125 -6.515625 10.390625 C-7.33546875 10.92171875 -8.1553125 11.4528125 -9 12 C-9.66 11.01 -10.32 10.02 -11 9 C-10.43410156 8.73445312 -9.86820312 8.46890625 -9.28515625 8.1953125 C-8.55167969 7.84210938 -7.81820313 7.48890625 -7.0625 7.125 C-6.33160156 6.77695313 -5.60070312 6.42890625 -4.84765625 6.0703125 C-2.83667541 5.1315023 -2.83667541 5.1315023 -2 3 C-1.34 3 -0.68 3 0 3 C0 2.01 0 1.02 0 0 Z " fill="#DEC318" transform="translate(300,130)"/>
<path d="M0 0 C3.375 0.25 3.375 0.25 7 1 C8.1875 2.9375 8.1875 2.9375 9 5 C10.91666667 6.16666667 10.91666667 6.16666667 13 7 C13.99 7.66 14.98 8.32 16 9 C16 9.66 16 10.32 16 11 C17.32 11.33 18.64 11.66 20 12 C20 12.66 20 13.32 20 14 C15.3424826 12.69007323 12.5561453 9.92826729 9.0703125 6.75390625 C6.23781346 4.35429857 3.28608767 2.71150399 0 1 C0 0.67 0 0.34 0 0 Z " fill="#9F3956" transform="translate(64,138)"/>
<path d="M0 0 C3.95906817 1.43308135 7.28718181 3.33141949 10.8125 5.625 C11.78832031 6.25664063 12.76414063 6.88828125 13.76953125 7.5390625 C14.50558594 8.02117187 15.24164063 8.50328125 16 9 C12.38619367 10.20460211 11.45637968 9.69608056 8 8.3125 C7.13375 7.97863281 6.2675 7.64476563 5.375 7.30078125 C2.738108 5.85656244 1.53667912 4.56281682 0 2 C0 1.34 0 0.68 0 0 Z " fill="#D96458" transform="translate(122,94)"/>
<path d="M0 0 C0 0.99 0 1.98 0 3 C-0.99 3.66 -1.98 4.32 -3 5 C-3.33 5.99 -3.66 6.98 -4 8 C-5.84765625 8.73046875 -5.84765625 8.73046875 -8.0625 9.1875 C-8.79597656 9.34605469 -9.52945313 9.50460938 -10.28515625 9.66796875 C-10.85105469 9.77753906 -11.41695312 9.88710937 -12 10 C-12 9.01 -12 8.02 -12 7 C-9.8828125 5.17578125 -9.8828125 5.17578125 -7.125 3.3125 C-6.22007812 2.68988281 -5.31515625 2.06726563 -4.3828125 1.42578125 C-2 0 -2 0 0 0 Z " fill="#DE6257" transform="translate(233,100)"/>
<path d="M0 0 C-0.125 1.875 -0.125 1.875 -1 4 C-2.98248715 4.71706982 -4.98415349 5.38290413 -7 6 C-7.99 7.485 -7.99 7.485 -9 9 C-14.33333333 12 -14.33333333 12 -17 12 C-17 11.34 -17 10.68 -17 10 C-15.906875 9.401875 -14.81375 8.80375 -13.6875 8.1875 C-11.04935977 6.68603342 -9.10039697 5.19586956 -7 3 C-2.44444444 0 -2.44444444 0 0 0 Z " fill="#2AA42D" transform="translate(289,144)"/>
<path d="M0 0 C0.99 0 1.98 0 3 0 C1.50107178 4.49678466 -2.04199083 6.74070721 -6 9 C-8.9375 9.8125 -8.9375 9.8125 -11 10 C-10.67 9.01 -10.34 8.02 -10 7 C-8.68 7 -7.36 7 -6 7 C-5.34 5.35 -4.68 3.7 -4 2 C-3.01 2 -2.02 2 -1 2 C-0.67 1.34 -0.34 0.68 0 0 Z " fill="#3FB16D" transform="translate(325,288)"/>
<path d="M0 0 C4.77609498 1.64178265 8.79382904 4.26546702 13 7 C11.68 7.33 10.36 7.66 9 8 C9 7.34 9 6.68 9 6 C7.02 6.33 5.04 6.66 3 7 C0 3.375 0 3.375 0 0 Z " fill="#E0615B" transform="translate(89,73)"/>
<path d="M0 0 C5.01113235 1.4317521 6.94469549 3.98445693 10 8 C8.35 8 6.7 8 5 8 C5 8.66 5 9.32 5 10 C3.68 9.67 2.36 9.34 1 9 C1.99 8.01 2.98 7.02 4 6 C3.67 5.01 3.34 4.02 3 3 C2.01 3 1.02 3 0 3 C0 2.01 0 1.02 0 0 Z " fill="#5B79D4" transform="translate(69,142)"/>
<path d="M0 0 C3.33524284 2.69995849 4.56351308 6.03255995 6 10 C6.1875 12.9375 6.1875 12.9375 6 15 C5.34 15 4.68 15 4 15 C2.64560332 12.29120665 2.93498549 9.99066732 3 7 C2.34 7 1.68 7 1 7 C0.67 4.69 0.34 2.38 0 0 Z " fill="#EEC856" transform="translate(326,77)"/>
<path d="M0 0 C-1 3 -1 3 -3.0625 4.1875 C-3.701875 4.455625 -4.34125 4.72375 -5 5 C-5.0270043 6.45823212 -5.04639787 7.91660675 -5.0625 9.375 C-5.07410156 10.18710938 -5.08570313 10.99921875 -5.09765625 11.8359375 C-5.14466334 14.04937142 -5.14466334 14.04937142 -4 16 C-4.33 16.66 -4.66 17.32 -5 18 C-5.66 18 -6.32 18 -7 18 C-7.13526139 15.75165504 -7.23210804 13.50097486 -7.3125 11.25 C-7.39951172 9.37054688 -7.39951172 9.37054688 -7.48828125 7.453125 C-7 4 -7 4 -4.60546875 1.546875 C-2 0 -2 0 0 0 Z " fill="#199E3C" transform="translate(272,156)"/>
<path d="M0 0 C2.97 0.33 5.94 0.66 9 1 C9.33 1.99 9.66 2.98 10 4 C10.99 4.66 11.98 5.32 13 6 C10 7 10 7 7.51953125 5.8203125 C6.62621094 5.26085937 5.73289063 4.70140625 4.8125 4.125 C3.91144531 3.57070312 3.01039063 3.01640625 2.08203125 2.4453125 C1.39496094 1.96835938 0.70789063 1.49140625 0 1 C0 0.67 0 0.34 0 0 Z " fill="#DD645A" transform="translate(163,200)"/>
<path d="M0 0 C2.97 0.495 2.97 0.495 6 1 C5.67 1.99 5.34 2.98 5 4 C2.4375 5.1875 2.4375 5.1875 0 6 C-1.125 2.25 -1.125 2.25 0 0 Z " fill="#DC5546" transform="translate(196,202)"/>
<path d="M0 0 C2.97 0.495 2.97 0.495 6 1 C6.33 2.32 6.66 3.64 7 5 C8.32 5 9.64 5 11 5 C11 5.99 11 6.98 11 8 C6.40378078 6.5129879 3.53027653 4.20187872 0 1 C0 0.67 0 0.34 0 0 Z " fill="#9B3C5B" transform="translate(53,130)"/>
<path d="M0 0 C0.33 0.99 0.66 1.98 1 3 C-0.625 5 -0.625 5 -3 7 C-6.25 7.25 -6.25 7.25 -9 7 C-6.3765992 4.08511023 -3.28183606 2.11496102 0 0 Z " fill="#DF6557" transform="translate(209,116)"/>
<path d="M0 0 C3.63 1.98 7.26 3.96 11 6 C9 7 9 7 5 7 C5 6.34 5 5.68 5 5 C3.68 5 2.36 5 1 5 C0.67 3.35 0.34 1.7 0 0 Z " fill="#5A7BD6" transform="translate(58,135)"/>
<path d="M0 0 C0.66 0.33 1.32 0.66 2 1 C1.01 2.485 1.01 2.485 0 4 C-0.99 4 -1.98 4 -3 4 C-3.33 4.99 -3.66 5.98 -4 7 C-4.99 7.66 -5.98 8.32 -7 9 C-8.32 8.67 -9.64 8.34 -11 8 C-7.37 5.36 -3.74 2.72 0 0 Z " fill="#E1A359" transform="translate(278,67)"/>
<path d="M0 0 C1.32 0 2.64 0 4 0 C2.5361389 4.39158329 0.02168662 4.87947433 -4 7 C-4 5.68 -4 4.36 -4 3 C-3.01 3 -2.02 3 -1 3 C-0.67 2.01 -0.34 1.02 0 0 Z " fill="#DC675C" transform="translate(244,171)"/>
<path d="M0 0 C1.32 0.66 2.64 1.32 4 2 C4 2.66 4 3.32 4 4 C5.32 4.66 6.64 5.32 8 6 C8 6.66 8 7.32 8 8 C6.0625 7.6875 6.0625 7.6875 4 7 C3.67 6.01 3.34 5.02 3 4 C0.99983534 2.79117904 0.99983534 2.79117904 -1 2 C-0.67 1.34 -0.34 0.68 0 0 Z " fill="#F0CE63" transform="translate(316,66)"/>
<path d="M0 0 C0 0.33 0 0.66 0 1 C-2.28977245 1.52909886 -4.58189188 2.04805019 -6.875 2.5625 C-8.78925781 2.99755859 -8.78925781 2.99755859 -10.7421875 3.44140625 C-14 4 -14 4 -16 3 C-10.4477112 0.1647887 -6.19887485 -0.37952295 0 0 Z " fill="#F1D684" transform="translate(300,61)"/>
<path d="M0 0 C0.66 0 1.32 0 2 0 C2.33 0.66 2.66 1.32 3 2 C3.99 2.66 4.98 3.32 6 4 C1.25 7 1.25 7 -1 7 C-0.67 4.69 -0.34 2.38 0 0 Z " fill="#E4BD14" transform="translate(266,152)"/>
<path d="M0 0 C0 0.99 0 1.98 0 3 C-1.2065625 3.433125 -1.2065625 3.433125 -2.4375 3.875 C-5.1326468 4.73262568 -5.1326468 4.73262568 -6 7 C-8.5625 7.625 -8.5625 7.625 -11 8 C-3.21621622 0 -3.21621622 0 0 0 Z " fill="#D96E68" transform="translate(253,86)"/>
<path d="M0 0 C0.33 0.66 0.66 1.32 1 2 C-2 3 -2 3 -5 2 C-5 2.66 -5 3.32 -5 4 C-5.99 4 -6.98 4 -8 4 C-7.625 2.0625 -7.625 2.0625 -7 0 C-4.30234372 -1.34882814 -2.84835666 -0.80338265 0 0 Z " fill="#E15B4E" transform="translate(118,90)"/>
<path d="M0 0 C0.99 0.495 0.99 0.495 2 1 C2.33333333 3.33333333 2.66666667 5.66666667 3 8 C3.66 8.33 4.32 8.66 5 9 C4.34 9.66 3.68 10.32 3 11 C0.84694043 7.14243493 -0.39253254 4.44870215 0 0 Z " fill="#7FA8E6" transform="translate(28,278)"/>
<path d="M0 0 C1 2 1 2 0.4375 4.0625 C-1 6 -1 6 -4.125 6.75 C-5.548125 6.87375 -5.548125 6.87375 -7 7 C-4.66666667 4.66666667 -2.33333333 2.33333333 0 0 Z " fill="#31A228" transform="translate(324,117)"/>
<path d="M0 0 C3.93673644 1.31224548 6.22719294 2.91910327 9 6 C8.01 6.33 7.02 6.66 6 7 C2.76985216 4.84656811 1.24313463 3.72940389 0 0 Z " fill="#E27869" transform="translate(157,116)"/>
<path d="M0 0 C0.99 0.33 1.98 0.66 3 1 C3 1.66 3 2.32 3 3 C4.32 2.67 5.64 2.34 7 2 C7 2.99 7 3.98 7 5 C6.34 5.66 5.68 6.32 5 7 C3.5 5.625 3.5 5.625 2 4 C2 3.34 2 2.68 2 2 C1.34 2 0.68 2 0 2 C0 1.34 0 0.68 0 0 Z " fill="#A7324D" transform="translate(32,112)"/>
<path d="M0 0 C0 0.66 0 1.32 0 2 C-3 4 -3 4 -5.0625 3.75 C-7 3 -7 3 -9 1 C-2.25 0 -2.25 0 0 0 Z " fill="#D86659" transform="translate(191,211)"/>
<path d="M0 0 C0 0.66 0 1.32 0 2 C0.66 2 1.32 2 2 2 C2 2.66 2 3.32 2 4 C-1 4 -4 4 -7 4 C-2.25 0 -2.25 0 0 0 Z " fill="#19A32F" transform="translate(312,128)"/>
<path d="M0 0 C3.465 1.98 3.465 1.98 7 4 C6.34 4.66 5.68 5.32 5 6 C4.34 5.67 3.68 5.34 3 5 C2.67 5.99 2.34 6.98 2 8 C2 6.02 2 4.04 2 2 C1.34 2 0.68 2 0 2 C0 1.34 0 0.68 0 0 Z " fill="#D05F60" transform="translate(82,68)"/>
<path d="M0 0 C1.32 0 2.64 0 4 0 C4.33 0.99 4.66 1.98 5 3 C2.625 3.625 2.625 3.625 0 4 C-0.66 3.34 -1.32 2.68 -2 2 C-1.34 2 -0.68 2 0 2 C0 1.34 0 0.68 0 0 Z " fill="#DD5E4F" transform="translate(195,125)"/>
<path d="M0 0 C0.66 0.33 1.32 0.66 2 1 C0.8803014 2.00593243 -0.2459412 3.0045849 -1.375 4 C-2.00148438 4.556875 -2.62796875 5.11375 -3.2734375 5.6875 C-5 7 -5 7 -7 7 C-7 6.01 -7 5.02 -7 4 C-5.824375 3.566875 -5.824375 3.566875 -4.625 3.125 C-1.90328368 2.15087746 -1.90328368 2.15087746 0 0 Z " fill="#C8C324" transform="translate(317,121)"/>
<path d="M0 0 C2.97 0.495 2.97 0.495 6 1 C6 1.66 6 2.32 6 3 C6.66 3 7.32 3 8 3 C8 3.66 8 4.32 8 5 C4.62496331 3.8141763 2.35277269 2.72426311 0 0 Z " fill="#DB6C5F" transform="translate(127,177)"/>
<path d="M0 0 C1.65 0.33 3.3 0.66 5 1 C0.25 4.875 0.25 4.875 -2 6 C-2 5.01 -2 4.02 -2 3 C-1.34 3 -0.68 3 0 3 C0 2.01 0 1.02 0 0 Z " fill="#E06A60" transform="translate(255,163)"/>
<path d="M0 0 C2.97 0.495 2.97 0.495 6 1 C6 1.66 6 2.32 6 3 C6.66 3 7.32 3 8 3 C7.67 3.99 7.34 4.98 7 6 C5.83054208 5.19152271 4.66449539 4.37810888 3.5 3.5625 C2.8503125 3.11003906 2.200625 2.65757812 1.53125 2.19140625 C1.0259375 1.79824219 0.520625 1.40507812 0 1 C0 0.67 0 0.34 0 0 Z " fill="#9D3951" transform="translate(87,154)"/>
<path d="M0 0 C-0.33 1.32 -0.66 2.64 -1 4 C-2.32 4 -3.64 4 -5 4 C-5.33 3.01 -5.66 2.02 -6 1 C-4 0 -4 0 0 0 Z " fill="#E15E59" transform="translate(101,156)"/>
</svg>
